<svg width="41" height="42" viewBox="0 0 41 42" fill="none" xmlns="http://www.w3.org/2000/svg">
<path d="M40.3032 23.5184C40.0243 23.141 39.606 22.8949 39.1466 22.8375C33.1009 22.091 28.5481 16.9805 28.5481 10.9348C28.5481 8.90859 29.0731 6.89883 30.0657 5.12695C30.2954 4.725 30.3364 4.24102 30.197 3.79805C30.0575 3.35508 29.7294 2.99414 29.311 2.79727C26.5958 1.54219 23.7001 0.902344 20.6978 0.902344C9.5251 0.902344 0.436035 9.91758 0.436035 21C0.436035 32.0824 9.5251 41.0977 20.706 41.0977C30.402 41.0977 38.7692 34.248 40.6067 24.8145C40.6888 24.3633 40.5821 23.8957 40.3032 23.5184ZM20.6978 37.7508C11.3872 37.7508 3.80752 30.2367 3.80752 21C3.80752 11.7633 11.3872 4.24922 20.6978 4.24922C22.6255 4.24922 24.504 4.56914 26.2923 5.19258C25.554 7.01367 25.1685 8.96602 25.1685 10.9348C25.1685 18.0305 30.0821 24.1254 36.8743 25.8152C34.7661 32.8207 28.2118 37.7508 20.6978 37.7508Z" fill="#FFFCF6"/>
<path d="M15.4806 14.0355C16.4048 14.0355 17.154 13.29 17.154 12.3703C17.154 11.4506 16.4048 10.7051 15.4806 10.7051C14.5564 10.7051 13.8071 11.4506 13.8071 12.3703C13.8071 13.29 14.5564 14.0355 15.4806 14.0355Z" fill="#FFFCF6"/>
<path d="M21.2145 20.5898C22.1387 20.5898 22.8879 19.8443 22.8879 18.9246C22.8879 18.0049 22.1387 17.2594 21.2145 17.2594C20.2902 17.2594 19.541 18.0049 19.541 18.9246C19.541 19.8443 20.2902 20.5898 21.2145 20.5898Z" fill="#FFFCF6"/>
<path d="M23.6261 29.5723C24.5503 29.5723 25.2995 28.8267 25.2995 27.907C25.2995 26.9873 24.5503 26.2418 23.6261 26.2418C22.7019 26.2418 21.9526 26.9873 21.9526 27.907C21.9526 28.8267 22.7019 29.5723 23.6261 29.5723Z" fill="#FFFCF6"/>
<path d="M11.5597 26.6273C12.4839 26.6273 13.2331 25.8818 13.2331 24.9621C13.2331 24.0424 12.4839 23.2969 11.5597 23.2969C10.6355 23.2969 9.88623 24.0424 9.88623 24.9621C9.88623 25.8818 10.6355 26.6273 11.5597 26.6273Z" fill="#FFFCF6"/>
</svg>
