<svg width="12" height="17" viewBox="0 0 12 17" fill="none" xmlns="http://www.w3.org/2000/svg">
<path d="M7 4.75V0.5H0.75C0.334375 0.5 0 0.834375 0 1.25V15.75C0 16.1656 0.334375 16.5 0.75 16.5H11.25C11.6656 16.5 12 16.1656 12 15.75V5.5H7.75C7.3375 5.5 7 5.1625 7 4.75ZM9.38906 11.355L6.37594 14.3456C6.16813 14.5522 5.8325 14.5522 5.62469 14.3456L2.61156 11.355C2.29437 11.0403 2.51688 10.5 2.96312 10.5H5V8C5 7.72375 5.22375 7.5 5.5 7.5H6.5C6.77625 7.5 7 7.72375 7 8V10.5H9.03687C9.48312 10.5 9.70563 11.0403 9.38906 11.355ZM11.7812 3.78125L8.72188 0.71875C8.58125 0.578125 8.39062 0.5 8.19063 0.5H8V4.5H12V4.30938C12 4.1125 11.9219 3.92188 11.7812 3.78125Z" fill="white"/>
</svg>
