<svg width="24" height="24" viewBox="0 0 24 24" fill="current" xmlns="http://www.w3.org/2000/svg">
<path fill-rule="evenodd" clip-rule="evenodd" d="M0 12.2969C0 5.50719 5.35776 0 11.9633 0C18.5688 0 23.9266 5.50719 24 12.2969C24 17.7286 20.6238 22.3305 15.8532 23.9902C15.2661 24.0657 15.0459 23.6885 15.0459 23.3867V19.9919C15.0459 18.8603 14.6789 18.1058 14.2386 17.7286C16.8808 17.4269 19.6697 16.4461 19.6697 11.6934C19.6697 10.3354 19.1559 9.2038 18.4221 8.37395C18.4278 8.35025 18.4359 8.3205 18.4455 8.28498C18.5578 7.86837 18.8839 6.65932 18.2752 5.12999C18.2752 5.12999 17.2477 4.82823 14.9724 6.41249C14.0184 6.18616 12.9908 6.03528 11.9633 6.03528C10.9358 6.03528 9.90829 6.11072 8.95413 6.41249C6.67886 4.82823 5.65137 5.12999 5.65137 5.12999C5.00272 6.75984 5.41571 8.02594 5.50031 8.28528L5.50461 8.29851C4.6972 9.2038 4.25684 10.26 4.25684 11.6179C4.25684 16.3707 7.0459 17.4269 9.68811 17.7286C9.3945 18.0304 9.02756 18.5585 8.95413 19.3883C8.29358 19.6901 6.60553 20.2182 5.50461 18.3322C5.50461 18.3322 4.84406 17.1251 3.66971 17.0497C3.66971 17.0497 2.49545 17.0497 3.59637 17.8041C3.59637 17.8041 4.40369 18.1813 4.91739 19.6147C4.91739 19.6147 5.65137 22.0288 8.95413 21.2744V23.3867C8.95413 23.6885 8.73395 24.0657 8.14682 23.9902C3.44952 22.3305 0 17.7286 0 12.2969Z" fill="current"/>
</svg>
