<svg width="24" height="21" viewBox="0 0 24 21" fill="current" xmlns="http://www.w3.org/2000/svg">
<path fill-rule="evenodd" clip-rule="evenodd" d="M4.09188 0.503418L6.49129 7.87828H1.70107L4.09188 0.503418ZM19.9119 0.503418L22.3066 7.87828H17.5133L19.9119 0.503418ZM10.305 19.6227L6.89703 9.13387H2.12405L10.305 19.6227ZM16.9668 9.56934L13.6988 19.625L14.483 18.6157L21.8844 9.13387H17.1076L16.9668 9.56934ZM15.7909 9.12918H8.21441L11.9999 20.7876L15.7909 9.12918ZM0.0165595 13.2579C0.0384973 13.3257 0.0813619 13.3849 0.139037 13.4268L8.77418 19.7001L1.0678 9.82031L0.017065 13.0492C-0.00517606 13.117 -0.00537825 13.19 0.0165595 13.2579ZM23.8616 13.4268L15.2257 19.6978L15.2546 19.6602L22.932 9.82031L23.9828 13.0476C24.0053 13.1154 24.0057 13.1886 23.9839 13.2566C23.9621 13.3246 23.9193 13.3847 23.8616 13.4268Z" fill="current"/>
</svg>
