<svg width="24" height="20" viewBox="0 0 24 20" fill="current" xmlns="http://www.w3.org/2000/svg">
<path fill-rule="evenodd" clip-rule="evenodd" d="M21.15 3.07692C22.2 2.92308 23.1 2.76923 24 2.30769C23.4 3.38462 22.5 4.30769 21.45 4.92308C21.75 12.1538 16.65 20 7.5 20C4.8 20 2.25 19.0769 0 17.6923C2.55 18 5.25 17.2308 7.05 15.8462C4.8 15.8462 3 14.3077 2.4 12.3077C3.15 12.4615 3.9 12.3077 4.65 12.1538C2.4 11.5385 0.75 9.38462 0.75 7.07692C1.5 7.38462 2.25 7.69231 3 7.69231C0.900001 6.15385 0.150001 3.23077 1.5 0.923078C4.05 4 7.65 6 11.7 6.15385C10.95 3.07692 13.35 0 16.5 0C17.85 0 19.2 0.615384 20.1 1.53846C21.3 1.23077 22.35 0.923076 23.25 0.307692C22.95 1.53846 22.2 2.46154 21.15 3.07692Z" fill="current"/>
</svg>
