<svg width="29" height="37" viewBox="0 0 29 37" fill="none" xmlns="http://www.w3.org/2000/svg">
<path d="M25.3379 13.4643C24.7262 13.4627 24.1304 13.6589 23.6395 14.024C23.6391 13.2998 23.3584 12.6039 22.8565 12.082C22.3545 11.56 21.6699 11.2522 20.9464 11.2239C20.2228 11.1952 19.516 11.4478 18.9743 11.9284C18.776 11.3924 18.4186 10.9301 17.95 10.6034C17.4811 10.2767 16.9237 10.1014 16.3523 10.1008C15.7473 10.1031 15.1585 10.2994 14.6729 10.6605V6.17714C14.7046 5.41417 14.4236 4.67124 13.8946 4.12023C13.3659 3.5692 12.6354 3.25745 11.8717 3.25745C11.1077 3.25745 10.3772 3.56917 9.84846 4.12023C9.31975 4.67129 9.03843 5.41423 9.07014 6.17714V18.7079C8.78512 18.1205 8.34289 17.6238 7.79254 17.2724C6.98019 16.7384 5.98726 16.5522 5.03673 16.7558L3.68266 17.0475V17.0478C3.38328 17.1146 3.1907 17.4066 3.2471 17.708L5.80196 29.6697C6.05962 31.6956 7.04718 33.558 8.58016 34.9077C10.1128 36.2571 12.0852 37.001 14.1275 37H19.7302C21.9604 37.001 24.0994 36.1158 25.6764 34.5388C27.253 32.9622 28.1385 30.8232 28.1372 28.593V16.263C28.1359 15.5211 27.8405 14.8098 27.3158 14.2852C26.7912 13.7605 26.0799 13.4655 25.338 13.4642L25.3379 13.4643ZM27.0174 28.5985C27.02 30.5313 26.2531 32.3859 24.8857 33.7523C23.5183 35.1187 21.6633 35.8843 19.7302 35.8806H14.1275C12.3526 35.883 10.6381 35.2372 9.30604 34.0643C7.97367 32.8918 7.11558 31.2728 6.89301 29.5123L4.46725 18.029L5.28528 17.8615V17.8618C5.94211 17.7163 6.62961 17.8411 7.19301 18.2082C7.75672 18.5757 8.14858 19.1544 8.28042 19.8139L8.5818 21.2494L9.09411 24.2015C9.1425 24.4919 9.40283 24.6988 9.69687 24.6798C9.98323 24.6504 10.2008 24.4081 10.1992 24.1201V6.17745C10.2422 5.60908 10.5703 5.10141 11.0709 4.82911C11.5716 4.55677 12.176 4.55677 12.6766 4.82911C13.1772 5.10145 13.5057 5.60909 13.5484 6.17745V19.6276C13.5484 19.9366 13.799 20.1873 14.1084 20.1873C14.2573 20.1886 14.4004 20.1299 14.5056 20.0248C14.6107 19.9196 14.6695 19.7764 14.6681 19.6276V12.9051C14.7112 12.3367 15.0392 11.829 15.5399 11.5564C16.0405 11.2841 16.645 11.2841 17.1456 11.5564C17.6462 11.8291 17.9743 12.3367 18.0173 12.9051V19.6276C18.0173 19.9366 18.268 20.1873 18.5774 20.1873C18.7262 20.1886 18.8691 20.1299 18.9745 20.0248C19.0797 19.9196 19.1384 19.7765 19.1371 19.6276V14.0245C19.1801 13.4562 19.5082 12.9485 20.0088 12.6762C20.5094 12.4039 21.1139 12.4039 21.6145 12.6762C22.1151 12.9485 22.4432 13.4562 22.4863 14.0245V19.6276C22.4863 19.9367 22.7369 20.1873 23.046 20.1873C23.2005 20.198 23.3527 20.1436 23.4652 20.0371C23.578 19.931 23.641 19.7825 23.6394 19.6276V16.2781C23.604 15.8121 23.7649 15.3526 24.0826 15.0098C24.4003 14.667 24.8466 14.4721 25.3141 14.4721C25.7814 14.4721 26.2276 14.667 26.5454 15.0098C26.8634 15.3525 27.024 15.8121 26.9886 16.2781L27.0174 28.5985Z" fill="#F48020"/>
<path d="M23.3761 3.19607L21.1319 5.44026V5.43993C21.0291 5.54673 20.8876 5.60714 20.7394 5.60747C20.5886 5.60714 20.444 5.54706 20.3376 5.43993C20.1236 5.22232 20.1236 4.87321 20.3376 4.65527L21.6245 3.36836H16.7393C16.8558 3.57161 16.9613 3.78054 17.0554 3.99515C17.1989 4.33424 17.3077 4.68669 17.3808 5.04778C17.4572 5.41591 17.4939 5.79138 17.4906 6.16723C17.4946 6.31608 17.4385 6.46026 17.3351 6.5674C17.2316 6.67453 17.0894 6.73562 16.9406 6.73662C16.6312 6.73662 16.3805 6.48597 16.3805 6.17691C16.3842 5.8762 16.3538 5.57615 16.2897 5.28208C16.2327 4.99339 16.1459 4.71136 16.0314 4.44002C15.8091 3.90368 15.4841 3.41609 15.0746 3.00453C14.8703 2.79726 14.644 2.6127 14.3997 2.4545C14.1628 2.28729 13.9074 2.14778 13.6391 2.03797C13.3661 1.91081 13.0784 1.8177 12.7827 1.76062C12.1906 1.64114 11.5806 1.64114 10.9885 1.76062C10.6978 1.81569 10.4151 1.9058 10.1461 2.02863C9.87905 2.14077 9.62406 2.28028 9.38544 2.44482C9.14781 2.60635 8.92686 2.79059 8.72527 2.99518C8.517 3.20043 8.33243 3.42806 8.17491 3.67437C8.00803 3.91166 7.86852 4.16698 7.75871 4.43532C7.64591 4.708 7.55613 4.98969 7.49071 5.27738C7.4323 5.57209 7.40193 5.8718 7.39993 6.17221C7.40093 6.32106 7.34252 6.46425 7.23739 6.56937C7.13193 6.67451 6.98875 6.73325 6.8399 6.73191C6.53084 6.73191 6.28019 6.48126 6.28019 6.1722C6.29087 5.79239 6.33593 5.41458 6.41403 5.04276C6.49179 4.6853 6.60394 4.33587 6.74912 3.99978C6.83857 3.78317 6.94402 3.5739 7.06485 3.37299H1.90703L3.19394 4.6599V4.66024C3.35448 4.81977 3.4032 5.06007 3.31743 5.26967C3.23165 5.47893 3.02807 5.61611 2.80178 5.61711C2.65092 5.61677 2.50641 5.55636 2.39961 5.44957L0.160452 3.19606C-0.053484 2.97812 -0.053484 2.62901 0.160452 2.4114L2.40465 0.167208C2.50911 0.0604072 2.65229 0 2.80181 0C2.95133 0 3.09451 0.0604098 3.19897 0.167208C3.30644 0.269336 3.36752 0.411185 3.36752 0.559707C3.36752 0.707896 3.30645 0.849737 3.19897 0.951864L1.90702 2.23912H7.89259L7.9263 2.20541C8.17862 1.95042 8.45597 1.72113 8.75401 1.52122C9.05405 1.31629 9.37479 1.14307 9.71086 1.00456C10.0503 0.859381 10.4027 0.747239 10.7635 0.66947C11.1316 0.593041 11.5071 0.555997 11.8829 0.559662C12.2638 0.556658 12.6439 0.593371 13.017 0.66947C13.3775 0.748904 13.7296 0.861047 14.0696 1.00456C14.4061 1.1424 14.7268 1.31562 15.0265 1.52122C15.3235 1.72981 15.5962 1.97045 15.8399 2.23912L15.8732 2.27249H21.6148L20.3375 0.966184C20.1236 0.748575 20.1236 0.399471 20.3375 0.181528C20.442 0.0747267 20.5852 0.0143201 20.7347 0.0143201C20.8842 0.0143201 21.0274 0.0747292 21.1318 0.181528L23.376 2.42572C23.4792 2.52718 23.5372 2.66603 23.5372 2.81087C23.5372 2.95572 23.4792 3.09423 23.376 3.19602L23.3761 3.19607Z" fill="#F48020"/>
</svg>
