<svg width="38" height="42" viewBox="0 0 38 42" fill="none" xmlns="http://www.w3.org/2000/svg">
<path d="M37 11L19 1L1 11V31L19 41L37 31V11ZM19 5.58L30.82 12.14L24.8 15.48C23.34 13.96 21.28 13 19 13C16.72 13 14.66 13.96 13.2 15.48L7.18 12.14L19 5.58ZM17 35.32L5 28.66V15.52L11.26 19C11.08 19.62 11 20.3 11 21C11 24.72 13.54 27.86 17 28.74V35.32ZM15 21C15 18.8 16.8 17 19 17C21.2 17 23 18.8 23 21C23 23.2 21.2 25 19 25C16.8 25 15 23.2 15 21ZM21 35.32V28.76C24.46 27.88 27 24.74 27 21.02C27 20.32 26.92 19.64 26.74 19L33 15.52V28.66L21 35.32Z" fill="#F48020" stroke="#F9F9F9"/>
</svg>
