<svg width="38" height="38" viewBox="0 0 38 38" fill="none" xmlns="http://www.w3.org/2000/svg">
<path d="M31.0209 6.97911L24.3418 13.6582L31.0209 6.97911ZM24.3418 24.3418L31.0209 31.0209L24.3418 24.3418ZM13.6582 13.6582L6.97911 6.97911L13.6582 13.6582ZM13.6582 24.3418L6.97911 31.0209L13.6582 24.3418ZM36 19C36 21.2325 35.5603 23.4431 34.706 25.5056C33.8516 27.5682 32.5994 29.4422 31.0208 31.0208C29.4422 32.5994 27.5682 33.8516 25.5056 34.706C23.4431 35.5603 21.2325 36 19 36C16.7675 36 14.5569 35.5603 12.4944 34.706C10.4318 33.8516 8.55778 32.5994 6.97918 31.0208C5.40059 29.4422 4.14838 27.5682 3.29405 25.5056C2.43972 23.4431 2 21.2325 2 19C2 14.4913 3.79107 10.1673 6.97918 6.97918C10.1673 3.79107 14.4913 2 19 2C23.5087 2 27.8327 3.79107 31.0208 6.97918C34.2089 10.1673 36 14.4913 36 19ZM26.5556 19C26.5556 21.0039 25.7595 22.9256 24.3426 24.3426C22.9256 25.7595 21.0039 26.5556 19 26.5556C16.9961 26.5556 15.0744 25.7595 13.6574 24.3426C12.2405 22.9256 11.4444 21.0039 11.4444 19C11.4444 16.9961 12.2405 15.0744 13.6574 13.6574C15.0744 12.2405 16.9961 11.4444 19 11.4444C21.0039 11.4444 22.9256 12.2405 24.3426 13.6574C25.7595 15.0744 26.5556 16.9961 26.5556 19V19Z" stroke="#F48020" stroke-width="3" stroke-linecap="round" stroke-linejoin="round"/>
</svg>
