<svg width="36" height="37" viewBox="0 0 36 37" fill="none" xmlns="http://www.w3.org/2000/svg">
<path d="M18 7.50271C18 7.96962 17.8104 8.41741 17.4728 8.74757C17.1352 9.07773 16.6774 9.26321 16.2 9.26321C15.7226 9.26321 15.2648 9.07773 14.9272 8.74757C14.5896 8.41741 14.4 7.96962 14.4 7.50271C14.4 7.03579 14.5896 6.588 14.9272 6.25784C15.2648 5.92768 15.7226 5.7422 16.2 5.7422C16.6774 5.7422 17.1352 5.92768 17.4728 6.25784C17.8104 6.588 18 7.03579 18 7.50271ZM18.0576 0.592725C17.5183 0.207564 16.8678 0 16.2 0C15.5322 0 14.8817 0.207564 14.3424 0.592725L0.9846 10.1259C-0.7758 11.3811 0.1332 14.1046 2.3094 14.1046H2.7V24.3155C1.88719 24.7212 1.20486 25.3387 0.728386 26.0999C0.251909 26.8611 -0.000169224 27.7363 8.52314e-08 28.6288V31.2695C8.52314e-08 31.9966 0.6048 32.5899 1.35 32.5899H14.6988C14.4597 31.7302 14.3625 30.8388 14.4108 29.9491H2.7V28.6288C2.7 27.4122 3.708 26.4281 4.95 26.4281H15.4188C15.9841 25.4026 16.7614 24.5033 17.7012 23.7874H17.55V14.1046H20.7V22.3173C21.4334 22.1227 22.1901 22.0245 22.95 22.0251H23.4V14.1046H27V22.0269H29.25C29.4012 22.0269 29.5506 22.0304 29.7 22.0392V14.1046H30.0906C32.2686 14.1046 33.1758 11.3829 31.4154 10.1259L18.0576 0.592725ZM15.9336 2.7247C16.0107 2.66961 16.1036 2.63993 16.1991 2.63993C16.2946 2.63993 16.3875 2.66961 16.4646 2.7247L28.71 11.4638H3.69L15.9354 2.7247H15.9336ZM14.85 14.1046V23.7874H11.7V14.1046H14.85ZM5.4 23.7874V14.1046H9V23.7874H5.4ZM36 30.3893C36 28.6383 35.2888 26.9591 34.023 25.721C32.7571 24.4829 31.0402 23.7874 29.25 23.7874L29.0664 23.7997C28.7276 23.8453 28.419 24.015 28.2032 24.2745C27.9873 24.534 27.8802 24.864 27.9036 25.1977C27.9269 25.5315 28.0788 25.8442 28.3288 26.0726C28.5787 26.3009 28.908 26.428 29.25 26.4281L29.5272 26.4387C30.5714 26.5133 31.5456 26.9805 32.2452 27.7424C32.9449 28.5042 33.3156 29.5015 33.2798 30.525C33.2439 31.5484 32.8042 32.5185 32.0529 33.2317C31.3016 33.945 30.297 34.3459 29.25 34.3504L29.2446 34.3592L29.061 34.3715C28.7212 34.4172 28.4118 34.5876 28.1959 34.8483C27.9799 35.109 27.8735 35.4403 27.8982 35.7749C27.923 36.1095 28.077 36.4224 28.3291 36.6499C28.5812 36.8775 28.9124 37.0026 29.2554 37V36.9912L29.6154 36.9824C31.34 36.8909 32.9631 36.1564 34.1508 34.93C35.3384 33.7035 36.0002 32.0785 36 30.3893V30.3893ZM24.3 25.1077C24.3 24.7576 24.1578 24.4217 23.9046 24.1741C23.6514 23.9265 23.308 23.7874 22.95 23.7874L22.59 23.7962C20.8313 23.885 19.1777 24.6426 17.9821 25.9073C16.7866 27.172 16.1437 28.8436 16.1907 30.5654C16.2376 32.2872 16.9708 33.9229 18.2336 35.1234C19.4964 36.3239 21.1889 36.9942 22.95 36.9912L23.1336 36.9806C23.4754 36.9382 23.7876 36.7696 24.0064 36.5094C24.2252 36.2491 24.3341 35.9169 24.3106 35.5808C24.2871 35.2446 24.1332 34.93 23.8802 34.7012C23.6273 34.4725 23.2945 34.347 22.95 34.3504L22.6728 34.3416C21.6237 34.2731 20.643 33.8083 19.938 33.0454C19.233 32.2825 18.8589 31.2814 18.8949 30.2536C18.9309 29.2259 19.3742 28.2521 20.1309 27.5382C20.8876 26.8243 21.8986 26.4262 22.95 26.4281L23.1336 26.4176C23.4571 26.3741 23.7535 26.2175 23.968 25.9767C24.1825 25.7358 24.3004 25.4271 24.3 25.1077ZM30.6 30.3893C30.6 30.0391 30.4578 29.7032 30.2046 29.4556C29.9514 29.208 29.608 29.0689 29.25 29.0689H22.95L22.7664 29.0812C22.4275 29.1268 22.119 29.2965 21.9032 29.556C21.6873 29.8155 21.5802 30.1455 21.6036 30.4793C21.6269 30.813 21.7788 31.1257 22.0288 31.3541C22.2787 31.5825 22.608 31.7095 22.95 31.7096H29.25L29.4336 31.6991C29.7571 31.6556 30.0535 31.499 30.268 31.2582C30.4825 31.0173 30.6004 30.7086 30.6 30.3893V30.3893Z" fill="#F48020"/>
</svg>
