<svg width="60" height="30" viewBox="0 0 60 30" fill="none" xmlns="http://www.w3.org/2000/svg">
<path d="M29.9979 0C28.7151 0 27.4705 0.173205 26.2894 0.515174C21.3744 1.89193 17.5051 5.95115 16.1927 11.1073C15.8668 12.3464 15.7017 13.6521 15.7017 14.9978C15.7017 20.5448 18.5761 25.3945 22.8434 27.9837C21.6157 25.7765 20.9172 23.2095 20.9172 20.4737C20.9172 19.9319 20.9426 19.3945 21.0019 18.8705C21.7046 11.8712 27.0091 6.30644 33.6809 5.56921C34.1805 5.50703 34.6927 5.48038 35.2092 5.48038C37.8169 5.48038 40.2639 6.21317 42.3679 7.50111C39.9083 3.01554 35.2854 0 29.9979 0Z" fill="#045599"/>
<path d="M43.8072 11.1074C42.6768 15.5486 39.6457 19.177 35.6875 20.9757C33.9433 21.7751 32.0214 22.2147 29.9978 22.2147C26.5899 22.2147 23.4572 20.9623 21.0061 18.8661C20.9468 19.3902 20.9214 19.9276 20.9214 20.4694C20.9214 23.2051 21.6199 25.7721 22.8476 27.9794C23.9186 28.6367 25.0701 29.143 26.2936 29.4849C27.4747 29.8269 28.7193 30.0001 30.002 30.0001C37.9016 30.0001 44.3025 23.2806 44.3025 14.9979C44.2982 13.6522 44.1331 12.3465 43.8072 11.1074Z" fill="#4478BB"/>
<path d="M43.8071 11.1072C42.6768 15.5484 39.6457 19.1768 35.6875 20.9755C36.4537 19.1457 36.8728 17.1205 36.8728 14.9977C36.8728 11.4225 35.679 8.14052 33.6851 5.56465C34.1846 5.50248 34.6968 5.47583 35.2133 5.47583C37.8211 5.47583 40.268 6.20862 42.372 7.49655C43.0028 8.61573 43.4854 9.82816 43.8071 11.1072Z" fill="#F48020"/>
<path d="M11.8493 15.0021C11.8493 11.3071 12.8568 7.85632 14.5925 4.93848C7.45926 8.77563 2.70091 13.9585 0 17.4448C1.70183 19.9141 4.66944 23.5469 9.30502 26.3715C12.4462 28.2856 15.6763 29.4048 18.8217 29.9955C14.5798 26.5092 11.8493 21.091 11.8493 15.0021Z" fill="#02519E"/>
<path d="M59.9999 12.5551C58.2981 10.0858 55.3305 6.4529 50.6949 3.63277C47.5537 1.71863 44.3236 0.599463 41.1782 0.00878906C45.4201 3.4951 48.1506 8.9133 48.1506 15.0021C48.1506 18.6972 47.1431 22.1479 45.4074 25.0658C52.5407 21.2286 57.299 16.0414 59.9999 12.5551Z" fill="#F48020"/>
</svg>
