<svg width="60" height="30" viewBox="0 0 60 30" fill="none" xmlns="http://www.w3.org/2000/svg">
<path d="M26.4243 0.996642L26.4243 0.99666L26.4285 0.995449C27.5626 0.667087 28.7603 0.5 29.9979 0.5C34.455 0.5 38.4309 2.72563 40.9482 6.19251C39.1835 5.41077 37.2434 4.98038 35.2092 4.98038C34.677 4.98038 34.1449 5.00777 33.6226 5.07261C26.7029 5.83894 21.2305 11.6024 20.5047 18.8174C20.4432 19.3622 20.4172 19.9176 20.4172 20.4737C20.4172 22.6003 20.8265 24.6298 21.5714 26.4772C18.3103 23.8308 16.2017 19.674 16.2017 14.9978C16.2017 13.693 16.3617 12.4302 16.6763 11.2345L16.6763 11.2345L16.6773 11.2307C17.9478 6.23876 21.6903 2.32269 26.4243 0.996642Z" fill="white" stroke="#111A23"/>
<path d="M26.4327 29.0046L26.4282 29.0034C25.2926 28.686 24.2214 28.2216 23.2213 27.6213C22.0739 25.5137 21.4214 23.0719 21.4214 20.4694C21.4214 20.2609 21.4253 20.0538 21.4335 19.8484C23.846 21.6538 26.8048 22.7147 29.9979 22.7147C32.0946 22.7147 34.0873 22.259 35.8953 21.4305C39.4177 19.8296 42.224 16.8342 43.6845 13.1157C43.7611 13.7313 43.8005 14.36 43.8025 14.9988C43.802 23.0279 37.6028 29.5001 30.0021 29.5001C28.7645 29.5001 27.5668 29.333 26.4327 29.0046Z" fill="white" stroke="#111A23"/>
<path d="M43.2909 11.1065C42.2859 14.9195 39.8317 18.0952 36.6012 19.9461C37.1038 18.3909 37.3729 16.7248 37.3729 14.9977C37.3729 11.6393 36.3514 8.52848 34.6126 5.98896C34.8112 5.98004 35.0116 5.97583 35.2134 5.97583C37.6802 5.97583 39.997 6.65603 41.9999 7.85565C42.5576 8.86763 42.9914 9.95807 43.2909 11.1065Z" fill="#F48020" stroke="#111A23"/>
<path d="M11.8493 15.0021C11.8493 11.3071 12.8568 7.85632 14.5925 4.93848C7.45926 8.77563 2.70091 13.9585 0 17.4448C1.70183 19.9141 4.66944 23.5469 9.30502 26.3715C12.4462 28.2856 15.6763 29.4048 18.8217 29.9955C14.5798 26.5092 11.8493 21.091 11.8493 15.0021Z" fill="white"/>
<path d="M60 12.5551C58.2982 10.0858 55.3305 6.4529 50.695 3.63277C47.5538 1.71863 44.3237 0.599463 41.1783 0.00878906C45.4202 3.4951 48.1507 8.9133 48.1507 15.0021C48.1507 18.6972 47.1431 22.1479 45.4075 25.0658C52.5407 21.2286 57.2991 16.0414 60 12.5551Z" fill="#F48020"/>
</svg>
