<svg width="24" height="20" viewBox="0 0 24 20" fill="current" xmlns="http://www.w3.org/2000/svg">
<path fill-rule="evenodd" clip-rule="evenodd" d="M14.5378 3.02777C12.3883 3.92678 8.09231 5.78751 1.64987 8.60995C0.603724 9.02828 0.0557033 9.43752 0.00581422 9.83769C-0.0784987 10.514 0.76372 10.7803 1.91061 11.1429C2.06661 11.1922 2.22825 11.2433 2.39397 11.2975C3.52233 11.6663 5.04017 12.0978 5.82924 12.1149C6.545 12.1305 7.34386 11.8338 8.22584 11.2248C14.2452 7.13899 17.3524 5.07384 17.5475 5.02932C17.6851 4.99791 17.8759 4.95841 18.0051 5.0739C18.1343 5.18939 18.1216 5.40811 18.1079 5.46679C18.0245 5.82444 14.7184 8.91507 13.0076 10.5145C12.4742 11.0131 12.0959 11.3668 12.0185 11.4476C11.8453 11.6285 11.6687 11.7997 11.499 11.9642C10.4507 12.9803 9.66464 13.7423 11.5425 14.9867C12.445 15.5847 13.1671 16.0792 13.8876 16.5725C14.6743 17.1113 15.4591 17.6487 16.4744 18.3179C16.7331 18.4884 16.9801 18.6655 17.2208 18.838C18.1364 19.4944 18.959 20.0841 19.9753 19.9901C20.5658 19.9354 21.1758 19.3771 21.4856 17.7118C22.2177 13.7763 23.6568 5.24911 23.9893 1.73527C24.0185 1.42741 23.9818 1.03342 23.9524 0.860463C23.9229 0.687507 23.8614 0.441082 23.6379 0.258661C23.3731 0.0426201 22.9643 -0.00293843 22.7815 0.000142728C21.9503 0.0150235 20.675 0.460914 14.5378 3.02777Z" fill="current"/>
</svg>
