<svg width="28" height="28" viewBox="0 0 28 28" fill="current" xmlns="http://www.w3.org/2000/svg">
<mask id="path-1-inside-1_5633_16897" fill="current">
<path d="M14 5C9.0396 5 5 9.0396 5 14C5 18.9604 9.0396 23 14 23C18.9604 23 23 18.9604 23 14C23 9.0396 18.9604 5 14 5V5ZM17.2079 18.4851C16.5841 20.4456 15.5742 21.7526 14.4457 22.0495L14.4454 18.0397C15.3664 18.0693 16.2872 18.2178 17.2079 18.4851L17.2079 18.4851ZM14.4454 17.1189V14.4754H17.8614C17.8318 15.5743 17.6832 16.614 17.4752 17.6238C16.4653 17.3267 15.4555 17.1784 14.4454 17.1189L14.4454 17.1189ZM16.5248 21.6931C17.1487 20.9505 17.6832 19.9406 18.0694 18.7524C18.9011 19.0495 19.5546 19.3464 19.9109 19.5246C18.99 20.5347 17.8019 21.2773 16.5248 21.6931V21.6931ZM17.8614 13.5545H14.4454V10.7029C15.4553 10.6732 16.4355 10.5543 17.4157 10.287C17.6832 11.2969 17.8316 12.3961 17.8614 13.5545L17.8614 13.5545ZM16.5248 6.33663C17.7427 6.75246 18.8712 7.43559 19.7624 8.35633C19.198 8.65344 18.604 8.92074 18.01 9.12855C17.6534 8 17.1485 7.01975 16.5248 6.33663ZM14.4454 9.78223V5.98025C15.5147 6.24753 16.5246 7.52486 17.1485 9.39599C16.2872 9.63364 15.3664 9.75257 14.4454 9.78219V9.78223ZM22.0791 14.4753C21.99 16.0496 21.4552 17.5643 20.5048 18.812C20.1781 18.6339 19.3761 18.218 18.3366 17.8614C18.6039 16.7921 18.7524 15.6634 18.782 14.4457L22.0791 14.4455L22.0791 14.4753ZM22.0791 13.5546H18.7524C18.7228 12.307 18.5742 11.1188 18.2771 10.0199C18.9901 9.78221 19.7028 9.45545 20.3861 9.06925C21.396 10.3466 21.99 11.9208 22.0791 13.5545L22.0791 13.5546ZM9.66326 17.802C8.92069 18.0693 8.20776 18.396 7.495 18.8118C6.54439 17.5347 6.00985 16.0496 5.92074 14.4751L9.24742 14.4753C9.27725 15.6337 9.39598 16.7625 9.66325 17.802L9.66326 17.802ZM10.1386 14.4753H13.5247V17.0892C12.485 17.1188 11.4751 17.2378 10.4949 17.505C10.3168 16.5544 10.1684 15.5446 10.1386 14.4753L10.1386 14.4753ZM9.90091 18.6635C10.2871 19.911 10.8216 20.9507 11.4752 21.6932C10.198 21.2774 9.00982 20.5348 8.08902 19.525C8.68324 19.198 9.27725 18.9009 9.90091 18.6635V18.6635ZM5.92076 13.5546C6.00985 11.8912 6.60388 10.3466 7.61394 9.03966C8.00014 9.24768 8.7427 9.60407 9.72295 9.9308C9.42584 11.0596 9.27749 12.2772 9.24766 13.5546H5.92076ZM13.5544 18.01V22.0496C12.4257 21.7525 11.4158 20.4159 10.7922 18.3962C11.6534 18.1583 12.6038 18.0396 13.5544 18.01V18.01ZM13.5544 10.6734V13.5546H10.1385C10.1681 12.3961 10.3167 11.2377 10.5839 10.1981C11.594 10.4654 12.5742 10.6139 13.5544 10.6734L13.5544 10.6734ZM8.23759 8.32673C9.12873 7.40599 10.2573 6.72288 11.4752 6.30704C10.8812 6.99015 10.3762 7.94075 9.99001 9.03971C9.24744 8.80206 8.62378 8.53479 8.23759 8.32679V8.32673ZM13.5544 5.9803V9.75263C12.6633 9.69317 11.7721 9.54461 10.8813 9.30718C11.5049 7.49508 12.4851 6.24756 13.5544 5.98028V5.9803Z"/>
</mask>
<path d="M14 5C9.0396 5 5 9.0396 5 14C5 18.9604 9.0396 23 14 23C18.9604 23 23 18.9604 23 14C23 9.0396 18.9604 5 14 5V5ZM17.2079 18.4851C16.5841 20.4456 15.5742 21.7526 14.4457 22.0495L14.4454 18.0397C15.3664 18.0693 16.2872 18.2178 17.2079 18.4851L17.2079 18.4851ZM14.4454 17.1189V14.4754H17.8614C17.8318 15.5743 17.6832 16.614 17.4752 17.6238C16.4653 17.3267 15.4555 17.1784 14.4454 17.1189L14.4454 17.1189ZM16.5248 21.6931C17.1487 20.9505 17.6832 19.9406 18.0694 18.7524C18.9011 19.0495 19.5546 19.3464 19.9109 19.5246C18.99 20.5347 17.8019 21.2773 16.5248 21.6931V21.6931ZM17.8614 13.5545H14.4454V10.7029C15.4553 10.6732 16.4355 10.5543 17.4157 10.287C17.6832 11.2969 17.8316 12.3961 17.8614 13.5545L17.8614 13.5545ZM16.5248 6.33663C17.7427 6.75246 18.8712 7.43559 19.7624 8.35633C19.198 8.65344 18.604 8.92074 18.01 9.12855C17.6534 8 17.1485 7.01975 16.5248 6.33663ZM14.4454 9.78223V5.98025C15.5147 6.24753 16.5246 7.52486 17.1485 9.39599C16.2872 9.63364 15.3664 9.75257 14.4454 9.78219V9.78223ZM22.0791 14.4753C21.99 16.0496 21.4552 17.5643 20.5048 18.812C20.1781 18.6339 19.3761 18.218 18.3366 17.8614C18.6039 16.7921 18.7524 15.6634 18.782 14.4457L22.0791 14.4455L22.0791 14.4753ZM22.0791 13.5546H18.7524C18.7228 12.307 18.5742 11.1188 18.2771 10.0199C18.9901 9.78221 19.7028 9.45545 20.3861 9.06925C21.396 10.3466 21.99 11.9208 22.0791 13.5545L22.0791 13.5546ZM9.66326 17.802C8.92069 18.0693 8.20776 18.396 7.495 18.8118C6.54439 17.5347 6.00985 16.0496 5.92074 14.4751L9.24742 14.4753C9.27725 15.6337 9.39598 16.7625 9.66325 17.802L9.66326 17.802ZM10.1386 14.4753H13.5247V17.0892C12.485 17.1188 11.4751 17.2378 10.4949 17.505C10.3168 16.5544 10.1684 15.5446 10.1386 14.4753L10.1386 14.4753ZM9.90091 18.6635C10.2871 19.911 10.8216 20.9507 11.4752 21.6932C10.198 21.2774 9.00982 20.5348 8.08902 19.525C8.68324 19.198 9.27725 18.9009 9.90091 18.6635V18.6635ZM5.92076 13.5546C6.00985 11.8912 6.60388 10.3466 7.61394 9.03966C8.00014 9.24768 8.7427 9.60407 9.72295 9.9308C9.42584 11.0596 9.27749 12.2772 9.24766 13.5546H5.92076ZM13.5544 18.01V22.0496C12.4257 21.7525 11.4158 20.4159 10.7922 18.3962C11.6534 18.1583 12.6038 18.0396 13.5544 18.01V18.01ZM13.5544 10.6734V13.5546H10.1385C10.1681 12.3961 10.3167 11.2377 10.5839 10.1981C11.594 10.4654 12.5742 10.6139 13.5544 10.6734L13.5544 10.6734ZM8.23759 8.32673C9.12873 7.40599 10.2573 6.72288 11.4752 6.30704C10.8812 6.99015 10.3762 7.94075 9.99001 9.03971C9.24744 8.80206 8.62378 8.53479 8.23759 8.32679V8.32673ZM13.5544 5.9803V9.75263C12.6633 9.69317 11.7721 9.54461 10.8813 9.30718C11.5049 7.49508 12.4851 6.24756 13.5544 5.98028V5.9803Z" fill="current"/>
<path d="M17.2079 18.4851L19.1137 19.0916L19.1598 18.947L19.1834 18.7971L17.2079 18.4851ZM14.4457 22.0495L12.4457 22.0496L12.4458 24.6436L14.9544 23.9837L14.4457 22.0495ZM14.4454 18.0397L14.5098 16.0407L12.4453 15.9743L12.4454 18.0398L14.4454 18.0397ZM17.2079 18.4851L19.1835 18.797L19.4584 17.0558L17.7655 16.5644L17.2079 18.4851ZM14.4454 17.1189L12.6131 17.9206L16.4454 17.1189H14.4454ZM14.4454 14.4754V12.4754H12.4454V14.4754H14.4454ZM17.8614 14.4754L19.8607 14.5293L19.916 12.4754H17.8614V14.4754ZM17.4752 17.6238L16.9107 19.5425L18.9956 20.1559L19.4341 18.0273L17.4752 17.6238ZM14.4454 17.1189L14.563 15.1223L11.305 14.9305L12.6131 17.9205L14.4454 17.1189ZM16.5248 21.6931L14.9935 20.4066L14.5248 20.9644V21.6931H16.5248ZM18.0694 18.7524L18.7423 16.869L16.8037 16.1764L16.1674 18.1342L18.0694 18.7524ZM19.9109 19.5246L21.3888 20.8722L23.1702 18.9184L20.8055 17.7358L19.9109 19.5246ZM16.5248 21.6931H14.5248V24.4477L17.144 23.5949L16.5248 21.6931ZM17.8614 13.5545L19.0083 11.916L18.4918 11.5545H17.8614V13.5545ZM14.4454 13.5545H12.4454V15.5545H14.4454V13.5545ZM14.4454 10.7029L14.3868 8.70373L12.4454 8.76068V10.7029H14.4454ZM17.4157 10.287L19.3491 9.77494L18.8332 7.8275L16.8896 8.35748L17.4157 10.287ZM17.8614 13.5545L16.7145 15.1929L19.9628 17.4668L19.8607 13.503L17.8614 13.5545ZM16.5248 6.33663L17.1711 4.44392L15.0478 7.6851L16.5248 6.33663ZM19.7624 8.35633L20.694 10.1261L23.0554 8.88299L21.1995 6.9654L19.7624 8.35633ZM18.01 9.12855L16.1029 9.73111L16.7241 11.6973L18.6704 11.0164L18.01 9.12855ZM14.4454 5.98025L14.9304 4.03995L12.4454 3.41881V5.98025H14.4454ZM17.1485 9.39599L17.6804 11.3239L19.7126 10.7632L19.0458 8.76339L17.1485 9.39599ZM14.4454 9.78219L14.3811 7.78322L12.4454 7.84549V9.78219H14.4454ZM22.0791 14.4753L24.0759 14.5883L24.0792 14.5308L24.0791 14.4732L22.0791 14.4753ZM20.5048 18.812L19.5473 20.5679L21.0552 21.3902L22.0959 20.0239L20.5048 18.812ZM18.3366 17.8614L16.3963 17.3764L15.9511 19.1575L17.6876 19.7532L18.3366 17.8614ZM18.782 14.4457L18.7819 12.4457L16.8301 12.4458L16.7826 14.3971L18.782 14.4457ZM22.0791 14.4455L24.0791 14.4434L24.077 12.4454L22.0789 12.4455L22.0791 14.4455ZM22.0791 13.5546V15.5546H23.8513L24.0646 13.7952L22.0791 13.5546ZM18.7524 13.5546L16.753 13.602L16.7994 15.5546H18.7524V13.5546ZM18.2771 10.0199L17.6447 8.1225L15.8538 8.71948L16.3464 10.5418L18.2771 10.0199ZM20.3861 9.06925L21.9551 7.82889L20.893 6.48549L19.4021 7.32809L20.3861 9.06925ZM22.0791 13.5545L24.0646 13.7952L24.0857 13.6209L24.0761 13.4456L22.0791 13.5545ZM9.66326 17.802L10.3406 19.6838L15.1186 17.964L10.4511 15.9637L9.66326 17.802ZM7.495 18.8118L5.89064 20.006L6.95833 21.4404L8.50285 20.5393L7.495 18.8118ZM5.92074 14.4751L5.92086 12.4751L3.80434 12.475L3.92393 14.5881L5.92074 14.4751ZM9.24742 14.4753L11.2468 14.4238L11.1966 12.4754L9.24754 12.4753L9.24742 14.4753ZM9.66325 17.802L7.72625 18.3L7.97122 19.2528L8.87541 19.6403L9.66325 17.802ZM10.1386 14.4753L8.72434 13.0611L5.31013 16.4753H10.1386V14.4753ZM13.5247 14.4753H15.5247V12.4753H13.5247V14.4753ZM13.5247 17.0892L13.5817 19.0884L15.5247 19.033V17.0892H13.5247ZM10.4949 17.505L8.52917 17.8735L8.92873 20.0051L11.0211 19.4346L10.4949 17.505ZM10.1386 14.4753L12.1378 14.4195L12.0082 9.77719L8.72435 13.0611L10.1386 14.4753ZM11.4752 21.6932L10.856 23.595L17.804 25.8573L12.9765 20.3719L11.4752 21.6932ZM8.08902 19.525L7.12489 17.7727L4.90061 18.9965L6.61115 20.8725L8.08902 19.525ZM5.92076 13.5546L3.92362 13.4476L3.81077 15.5546H5.92076V13.5546ZM7.61394 9.03966L8.56237 7.27884L7.0688 6.47435L6.03143 7.81667L7.61394 9.03966ZM9.72295 9.9308L11.6571 10.4399L12.1344 8.62641L10.3554 8.03342L9.72295 9.9308ZM9.24766 13.5546V15.5546H11.2015L11.2471 13.6013L9.24766 13.5546ZM13.5544 22.0496L13.0453 23.9837L15.5544 24.6442V22.0496H13.5544ZM10.7922 18.3962L10.2597 16.4684L8.2731 17.017L8.88118 18.9863L10.7922 18.3962ZM13.5544 18.01H15.5544V15.9467L13.4921 16.011L13.5544 18.01ZM13.5544 10.6734L13.0345 8.74214L11.5544 9.14062V10.6734H13.5544ZM13.5544 13.5546V15.5546H15.5544V13.5546H13.5544ZM10.1385 13.5546L8.13913 13.5034L8.08667 15.5546H10.1385V13.5546ZM10.5839 10.1981L11.0956 8.26462L9.14841 7.74937L8.64692 9.70011L10.5839 10.1981ZM13.5544 10.6734L14.0744 12.6046L13.6755 8.67704L13.5544 10.6734ZM8.23759 8.32673L6.80047 6.93581L6.23759 7.51738V8.32673H8.23759ZM11.4752 6.30704L12.9844 7.61939L17.8585 2.01408L10.8289 4.41433L11.4752 6.30704ZM9.99001 9.03971L9.3804 10.9445L11.2323 11.5372L11.8769 9.70279L9.99001 9.03971ZM8.23759 8.32679H6.23759V9.52123L7.28921 10.0876L8.23759 8.32679ZM13.5544 9.75263L13.4213 11.7482L15.5544 11.8905V9.75263H13.5544ZM10.8813 9.30718L8.99013 8.65632L8.29134 10.6867L10.3662 11.2397L10.8813 9.30718ZM13.5544 5.98028H15.5544V3.41885L13.0694 4.03998L13.5544 5.98028ZM14 3C7.93503 3 3 7.93503 3 14H7C7 10.1442 10.1442 7 14 7V3ZM3 14C3 20.065 7.93503 25 14 25V21C10.1442 21 7 17.8558 7 14H3ZM14 25C20.065 25 25 20.065 25 14H21C21 17.8558 17.8558 21 14 21V25ZM25 14C25 7.93503 20.065 3 14 3V7C17.8558 7 21 10.1442 21 14H25ZM15.3021 17.8787C15.0415 18.6975 14.7276 19.2885 14.4347 19.6666C14.1344 20.0545 13.9422 20.1138 13.9369 20.1153L14.9544 23.9837C16.0776 23.6882 16.9547 22.9456 17.5974 22.1157C18.2475 21.276 18.7505 20.2332 19.1137 19.0916L15.3021 17.8787ZM16.4457 22.0493L16.4454 18.0396L12.4454 18.0398L12.4457 22.0496L16.4457 22.0493ZM14.3811 20.0386C15.1282 20.0627 15.8835 20.1832 16.6504 20.4058L17.7655 16.5644C16.6909 16.2525 15.6045 16.0759 14.5098 16.0407L14.3811 20.0386ZM15.2324 18.1732L15.2324 18.1732L19.1834 18.7971L19.1835 18.797L15.2324 18.1732ZM16.4454 17.1189V14.4754H12.4454V17.1189H16.4454ZM14.4454 16.4754H17.8614V12.4754H14.4454V16.4754ZM15.8621 14.4215C15.8365 15.3731 15.7075 16.2921 15.5163 17.2203L19.4341 18.0273C19.6589 16.9358 19.8271 15.7755 19.8607 14.5293L15.8621 14.4215ZM18.0397 15.7051C16.8547 15.3565 15.6902 15.1887 14.563 15.1223L14.3279 19.1154C15.2208 19.168 16.076 19.2969 16.9107 19.5425L18.0397 15.7051ZM12.6131 17.9205L12.6131 17.9206L16.2778 16.3173L16.2777 16.3173L12.6131 17.9205ZM18.0561 22.9796C18.8817 21.9969 19.5253 20.7433 19.9715 19.3706L16.1674 18.1342C15.8411 19.138 15.4157 19.9041 14.9935 20.4066L18.0561 22.9796ZM17.3966 20.6358C18.149 20.9046 18.7285 21.1695 19.0164 21.3134L20.8055 17.7358C20.3806 17.5234 19.6532 17.1944 18.7423 16.869L17.3966 20.6358ZM18.433 18.1771C17.7572 18.9183 16.8703 19.4773 15.9056 19.7914L17.144 23.5949C18.7336 23.0773 20.2228 22.1511 21.3888 20.8722L18.433 18.1771ZM18.5248 21.6931V21.6931H14.5248V21.6931H18.5248ZM17.8614 11.5545H14.4454V15.5545H17.8614V11.5545ZM16.4454 13.5545V10.7029H12.4454V13.5545H16.4454ZM14.5041 12.702C15.6345 12.6688 16.7768 12.5343 17.9419 12.2166L16.8896 8.35748C16.0943 8.57434 15.2761 8.67763 14.3868 8.70373L14.5041 12.702ZM15.4824 10.7991C15.7053 11.6406 15.8357 12.5834 15.8621 13.606L19.8607 13.503C19.8274 12.2087 19.6612 10.9532 19.3491 9.77494L15.4824 10.7991ZM19.0083 11.916L19.0083 11.916L16.7145 15.1929L16.7145 15.1929L19.0083 11.916ZM15.8786 8.22935C16.8262 8.55292 17.6749 9.07535 18.3253 9.74726L21.1995 6.9654C20.0675 5.79583 18.6591 4.95201 17.1711 4.44392L15.8786 8.22935ZM18.8307 6.58657C18.3377 6.84613 17.8347 7.07101 17.3495 7.24075L18.6704 11.0164C19.3733 10.7705 20.0583 10.4608 20.694 10.1261L18.8307 6.58657ZM19.917 8.52599C19.5064 7.22654 18.8845 5.95496 18.0018 4.98816L15.0478 7.6851C15.4124 8.08453 15.8003 8.77346 16.1029 9.73111L19.917 8.52599ZM16.4454 9.78223V5.98025H12.4454V9.78223H16.4454ZM13.9604 7.92056C13.9198 7.91039 14.0938 7.94618 14.3955 8.32757C14.6832 8.69119 14.9941 9.25778 15.2511 10.0286L19.0458 8.76339C18.6789 7.66307 18.173 6.65542 17.5325 5.84578C16.906 5.0539 16.0404 4.31739 14.9304 4.03995L13.9604 7.92056ZM16.6165 7.46803C15.9377 7.65533 15.1783 7.75758 14.3811 7.78322L14.5097 11.7812C15.5544 11.7476 16.6367 11.6119 17.6804 11.3239L16.6165 7.46803ZM12.4454 9.78219V9.78223H16.4454V9.78219H12.4454ZM20.0823 14.3623C20.0145 15.56 19.6093 16.6871 18.9138 17.6002L22.0959 20.0239C23.3012 18.4415 23.9655 16.5391 24.0759 14.5883L20.0823 14.3623ZM21.4624 17.0562C21.0788 16.847 20.1688 16.3756 18.9855 15.9697L17.6876 19.7532C18.5833 20.0605 19.2774 20.4207 19.5473 20.5679L21.4624 17.0562ZM20.2769 18.3464C20.5828 17.1224 20.7486 15.8464 20.7814 14.4944L16.7826 14.3971C16.7563 15.4803 16.6249 16.4618 16.3963 17.3764L20.2769 18.3464ZM18.7822 16.4457L22.0792 16.4455L22.0789 12.4455L18.7819 12.4457L18.7822 16.4457ZM20.0791 14.4476L20.0791 14.4774L24.0791 14.4732L24.0791 14.4434L20.0791 14.4476ZM22.0791 11.5546H18.7524V15.5546H22.0791V11.5546ZM20.7519 13.5071C20.7193 12.1347 20.5551 10.7826 20.2078 9.49788L16.3464 10.5418C16.5933 11.4551 16.7263 12.4794 16.753 13.602L20.7519 13.5071ZM18.9096 11.9172C19.7616 11.6332 20.5919 11.2503 21.3702 10.8104L19.4021 7.32809C18.8138 7.66059 18.2185 7.9312 17.6447 8.1225L18.9096 11.9172ZM18.8172 10.3096C19.5695 11.2612 20.0153 12.4397 20.0821 13.6634L24.0761 13.4456C23.9647 11.402 23.2224 9.43198 21.9551 7.82889L18.8172 10.3096ZM20.0936 13.3138L20.0936 13.3139L24.0646 13.7952L24.0646 13.7952L20.0936 13.3138ZM8.98593 15.9202C8.13501 16.2264 7.31078 16.6038 6.48714 17.0843L8.50285 20.5393C9.10474 20.1882 9.70636 19.9121 10.3406 19.6838L8.98593 15.9202ZM9.09935 17.6177C8.38374 16.6562 7.98463 15.5474 7.91754 14.3621L3.92393 14.5881C4.03507 16.5517 4.70505 18.4132 5.89064 20.006L9.09935 17.6177ZM5.92061 16.4751L9.24729 16.4753L9.24754 12.4753L5.92086 12.4751L5.92061 16.4751ZM7.24808 14.5268C7.28035 15.7797 7.40963 17.0686 7.72625 18.3L11.6002 17.3039C11.3823 16.4564 11.2742 15.4877 11.2468 14.4238L7.24808 14.5268ZM8.87541 19.6403L8.87542 19.6403L10.4511 15.9637L10.4511 15.9637L8.87541 19.6403ZM10.1386 16.4753H13.5247V12.4753H10.1386V16.4753ZM11.5247 14.4753V17.0892H15.5247V14.4753H11.5247ZM13.4677 15.09C12.3144 15.1229 11.1401 15.2561 9.9688 15.5755L11.0211 19.4346C11.8101 19.2194 12.6555 19.1148 13.5817 19.0884L13.4677 15.09ZM12.4607 17.1366C12.2922 16.2374 12.1635 15.3418 12.1378 14.4195L8.13934 14.5311C8.17329 15.7473 8.34135 16.8715 8.52917 17.8735L12.4607 17.1366ZM8.72435 13.0611L8.72434 13.0611L11.5528 15.8895L11.5528 15.8895L8.72435 13.0611ZM7.99036 19.2549C8.43145 20.6797 9.07932 21.9982 9.97379 23.0145L12.9765 20.3719C12.564 19.9031 12.1428 19.1423 11.8115 18.072L7.99036 19.2549ZM12.0944 19.7915C11.1296 19.4774 10.2425 18.9184 9.5669 18.1774L6.61115 20.8725C7.77713 22.1513 9.2665 23.0774 10.856 23.595L12.0944 19.7915ZM9.05316 21.2772C9.60612 20.973 10.1099 20.7239 10.6124 20.5326L9.18936 16.7943C8.44462 17.0778 7.76037 17.423 7.12489 17.7727L9.05316 21.2772ZM7.9179 13.6615C7.9845 12.4181 8.42573 11.2599 9.19644 10.2626L6.03143 7.81667C4.78202 9.43337 4.0352 11.3644 3.92362 13.4476L7.9179 13.6615ZM6.6655 10.8005C7.14205 11.0572 7.99009 11.4614 9.09053 11.8282L10.3554 8.03342C9.49531 7.74675 8.85823 7.4382 8.56237 7.27884L6.6655 10.8005ZM7.78883 9.4217C7.44402 10.7317 7.28088 12.109 7.2482 13.5079L11.2471 13.6013C11.2741 12.4455 11.4077 11.3874 11.6571 10.4399L7.78883 9.4217ZM9.24766 11.5546H5.92076V15.5546H9.24766V11.5546ZM11.5544 18.01V22.0496H15.5544V18.01H11.5544ZM14.0635 20.1155C14.0734 20.1181 13.8838 20.0656 13.5793 19.6628C13.2835 19.2715 12.9662 18.6582 12.7031 17.8061L8.88118 18.9863C9.24174 20.1539 9.74121 21.2187 10.3884 22.0749C11.027 22.9196 11.9067 23.684 13.0453 23.9837L14.0635 20.1155ZM11.3246 20.324C11.9958 20.1386 12.7819 20.035 13.6167 20.009L13.4921 16.011C12.4257 16.0442 11.311 16.178 10.2597 16.4684L11.3246 20.324ZM11.5544 18.01V18.01H15.5544V18.01H11.5544ZM11.5544 10.6734V13.5546H15.5544V10.6734H11.5544ZM13.5544 11.5546H10.1385V15.5546H13.5544V11.5546ZM12.1378 13.6057C12.1641 12.5765 12.2963 11.57 12.521 10.696L8.64692 9.70011C8.33706 10.9054 8.17206 12.2158 8.13913 13.5034L12.1378 13.6057ZM10.0723 12.1315C11.2179 12.4347 12.3294 12.6027 13.4333 12.6697L13.6755 8.67704C12.819 8.62508 11.9701 8.49605 11.0956 8.26462L10.0723 12.1315ZM13.0345 8.74214L13.0345 8.74214L14.0744 12.6046L14.0744 12.6046L13.0345 8.74214ZM9.67472 9.71766C10.325 9.04576 11.1737 8.52333 12.1214 8.19975L10.8289 4.41433C9.34083 4.92243 7.93245 5.76623 6.80047 6.93581L9.67472 9.71766ZM9.96594 4.99469C9.15474 5.92758 8.54243 7.12656 8.10313 8.37663L11.8769 9.70279C12.21 8.75495 12.6076 8.05272 12.9844 7.61939L9.96594 4.99469ZM10.5996 7.13488C9.94549 6.92553 9.44029 6.70291 9.18597 6.56594L7.28921 10.0876C7.80728 10.3667 8.54939 10.6786 9.3804 10.9445L10.5996 7.13488ZM10.2376 8.32679V8.32673H6.23759V8.32679H10.2376ZM11.5544 5.9803V9.75263H15.5544V5.9803H11.5544ZM13.6876 7.75707C12.9297 7.7065 12.1664 7.57987 11.3963 7.37464L10.3662 11.2397C11.3779 11.5094 12.3969 11.6798 13.4213 11.7482L13.6876 7.75707ZM12.7724 9.95803C13.0298 9.20999 13.3337 8.66289 13.6135 8.31253C13.9046 7.94805 14.0722 7.9124 14.0394 7.92059L13.0694 4.03998C11.9674 4.31544 11.1102 5.03719 10.488 5.81632C9.85444 6.60956 9.35634 7.59226 8.99013 8.65632L12.7724 9.95803ZM11.5544 5.98028V5.9803H15.5544V5.98028H11.5544Z" fill="current" mask="url(#path-1-inside-1_5633_16897)"/>
</svg>
