<svg width="24" height="17" viewBox="0 0 24 17" fill="current" xmlns="http://www.w3.org/2000/svg">
<path fill-rule="evenodd" clip-rule="evenodd" d="M23.4 2.55C23.1 1.5 22.35 0.75 21.3 0.45C19.5 0 11.85 0 11.85 0C11.85 0 4.35001 0 2.40001 0.45C1.35001 0.75 0.599995 1.5 0.299995 2.55C-4.29153e-06 4.5 0 8.4 0 8.4C0 8.4 4.29153e-06 12.3 0.450005 14.25C0.750004 15.3 1.5 16.05 2.55 16.35C4.35 16.8 12 16.8 12 16.8C12 16.8 19.5 16.8 21.45 16.35C22.5 16.05 23.25 15.3 23.55 14.25C24 12.3 24 8.4 24 8.4C24 8.4 24 4.5 23.4 2.55ZM9.59961 4.79993L15.8996 8.39993L9.59961 11.9999V4.79993Z" fill="current"/>
</svg>
